<svg width="255" height="169" viewBox="0 0 255 169" fill="none" xmlns="http://www.w3.org/2000/svg">
<path d="M10.6256 155V148.29H19.7556C21.4423 148.29 22.7623 147.795 23.7156 146.805C24.669 145.815 25.1456 144.605 25.1456 143.175C25.1456 142.185 24.9256 141.305 24.4856 140.535C24.0456 139.765 23.4223 139.16 22.6156 138.72C21.8456 138.28 20.8923 138.06 19.7556 138.06H10.6256V131.515H19.0406C20.4706 131.515 21.6256 131.167 22.5056 130.47C23.3856 129.737 23.8256 128.637 23.8256 127.17C23.8256 125.74 23.3856 124.677 22.5056 123.98C21.6256 123.247 20.4706 122.88 19.0406 122.88H10.6256V116.17H20.6906C23.184 116.17 25.2923 116.628 27.0156 117.545C28.7756 118.462 30.114 119.69 31.0306 121.23C31.9473 122.77 32.4056 124.475 32.4056 126.345C32.4056 128.728 31.6356 130.745 30.0956 132.395C28.5556 134.045 26.2823 135.182 23.2756 135.805L23.4956 132.89C26.759 133.513 29.2706 134.778 31.0306 136.685C32.8273 138.592 33.7256 140.938 33.7256 143.725C33.7256 145.852 33.194 147.777 32.1306 149.5C31.104 151.187 29.6006 152.525 27.6206 153.515C25.6773 154.505 23.3306 155 20.5806 155H10.6256ZM4.02564 155V116.17H12.5506V155H4.02564ZM50.37 155.605C47.9134 155.605 45.7317 155.11 43.825 154.12C41.955 153.093 40.4884 151.7 39.425 149.94C38.3617 148.143 37.83 146.09 37.83 143.78V128.27H46.245V143.67C46.245 144.587 46.3917 145.375 46.685 146.035C47.015 146.695 47.4917 147.208 48.115 147.575C48.7384 147.942 49.49 148.125 50.37 148.125C51.6167 148.125 52.6067 147.74 53.34 146.97C54.0734 146.163 54.44 145.063 54.44 143.67V128.27H62.855V143.725C62.855 146.072 62.3234 148.143 61.26 149.94C60.1967 151.7 58.73 153.093 56.86 154.12C54.99 155.11 52.8267 155.605 50.37 155.605ZM44.375 124.86C43.055 124.86 41.955 124.42 41.075 123.54C40.2317 122.623 39.81 121.523 39.81 120.24C39.81 118.92 40.2317 117.82 41.075 116.94C41.955 116.06 43.055 115.62 44.375 115.62C45.695 115.62 46.7767 116.06 47.62 116.94C48.4634 117.82 48.885 118.92 48.885 120.24C48.885 121.523 48.4634 122.623 47.62 123.54C46.7767 124.42 45.695 124.86 44.375 124.86ZM56.475 124.86C55.155 124.86 54.055 124.42 53.175 123.54C52.3317 122.623 51.91 121.523 51.91 120.24C51.91 118.92 52.3317 117.82 53.175 116.94C54.055 116.06 55.155 115.62 56.475 115.62C57.795 115.62 58.8767 116.06 59.72 116.94C60.5634 117.82 60.985 118.92 60.985 120.24C60.985 121.523 60.5634 122.623 59.72 123.54C58.8767 124.42 57.795 124.86 56.475 124.86ZM68.1385 155V128.27H76.5535V155H68.1385ZM76.5535 140.315L73.0335 137.565C73.7301 134.448 74.9035 132.028 76.5535 130.305C78.2035 128.582 80.4951 127.72 83.4285 127.72C84.7118 127.72 85.8301 127.922 86.7835 128.325C87.7735 128.692 88.6351 129.278 89.3685 130.085L84.3635 136.41C83.9968 136.007 83.5385 135.695 82.9885 135.475C82.4385 135.255 81.8151 135.145 81.1185 135.145C79.7251 135.145 78.6068 135.585 77.7635 136.465C76.9568 137.308 76.5535 138.592 76.5535 140.315ZM103.728 155.605C100.978 155.605 98.4849 155 96.2482 153.79C94.0482 152.543 92.3065 150.857 91.0232 148.73C89.7399 146.603 89.0982 144.22 89.0982 141.58C89.0982 138.94 89.7399 136.575 91.0232 134.485C92.3065 132.395 94.0482 130.745 96.2482 129.535C98.4482 128.288 100.942 127.665 103.728 127.665C106.515 127.665 109.008 128.27 111.208 129.48C113.408 130.69 115.15 132.358 116.433 134.485C117.717 136.575 118.358 138.94 118.358 141.58C118.358 144.22 117.717 146.603 116.433 148.73C115.15 150.857 113.408 152.543 111.208 153.79C109.008 155 106.515 155.605 103.728 155.605ZM103.728 147.96C104.938 147.96 106.002 147.703 106.918 147.19C107.835 146.64 108.532 145.888 109.008 144.935C109.522 143.945 109.778 142.827 109.778 141.58C109.778 140.333 109.522 139.252 109.008 138.335C108.495 137.382 107.78 136.648 106.863 136.135C105.983 135.585 104.938 135.31 103.728 135.31C102.555 135.31 101.51 135.585 100.593 136.135C99.6765 136.648 98.9615 137.382 98.4482 138.335C97.9349 139.288 97.6782 140.388 97.6782 141.635C97.6782 142.845 97.9349 143.945 98.4482 144.935C98.9615 145.888 99.6765 146.64 100.593 147.19C101.51 147.703 102.555 147.96 103.728 147.96Z" fill="#D6724F"/>
<path d="M122.328 155L137.453 117.82H139.103L154.118 155H152.193L137.838 119.36H138.663L124.198 155H122.328ZM128.653 142.735V141.14H147.848V142.735H128.653ZM168.513 155.55C167.156 155.55 165.873 155.367 164.663 155C163.49 154.597 162.426 154.065 161.473 153.405C160.52 152.708 159.676 151.92 158.943 151.04L160.098 149.83C161.198 151.26 162.463 152.323 163.893 153.02C165.323 153.68 166.881 154.01 168.568 154.01C170.658 154.01 172.326 153.57 173.573 152.69C174.82 151.773 175.443 150.527 175.443 148.95C175.443 147.557 175.076 146.457 174.343 145.65C173.646 144.843 172.73 144.22 171.593 143.78C170.456 143.34 169.246 142.937 167.963 142.57C166.716 142.203 165.525 141.782 164.388 141.305C163.251 140.792 162.316 140.095 161.583 139.215C160.886 138.298 160.538 137.07 160.538 135.53C160.538 134.283 160.868 133.183 161.528 132.23C162.188 131.277 163.123 130.525 164.333 129.975C165.543 129.425 166.973 129.15 168.623 129.15C170.42 129.15 172.07 129.48 173.573 130.14C175.076 130.763 176.25 131.68 177.093 132.89L175.938 134.045C175.205 133.018 174.178 132.212 172.858 131.625C171.538 131.002 170.071 130.69 168.458 130.69C166.405 130.69 164.846 131.148 163.783 132.065C162.72 132.982 162.188 134.118 162.188 135.475C162.188 136.758 162.536 137.767 163.233 138.5C163.966 139.233 164.901 139.802 166.038 140.205C167.175 140.608 168.366 140.993 169.613 141.36C170.896 141.69 172.106 142.13 173.243 142.68C174.38 143.193 175.296 143.927 175.993 144.88C176.726 145.797 177.093 147.08 177.093 148.73C177.093 150.82 176.305 152.488 174.728 153.735C173.188 154.945 171.116 155.55 168.513 155.55ZM191.448 155.55C190.091 155.55 188.808 155.367 187.598 155C186.424 154.597 185.361 154.065 184.408 153.405C183.454 152.708 182.611 151.92 181.878 151.04L183.033 149.83C184.133 151.26 185.398 152.323 186.828 153.02C188.258 153.68 189.816 154.01 191.503 154.01C193.593 154.01 195.261 153.57 196.508 152.69C197.754 151.773 198.378 150.527 198.378 148.95C198.378 147.557 198.011 146.457 197.278 145.65C196.581 144.843 195.664 144.22 194.528 143.78C193.391 143.34 192.181 142.937 190.898 142.57C189.651 142.203 188.459 141.782 187.323 141.305C186.186 140.792 185.251 140.095 184.518 139.215C183.821 138.298 183.473 137.07 183.473 135.53C183.473 134.283 183.803 133.183 184.463 132.23C185.123 131.277 186.058 130.525 187.268 129.975C188.478 129.425 189.908 129.15 191.558 129.15C193.354 129.15 195.004 129.48 196.508 130.14C198.011 130.763 199.184 131.68 200.028 132.89L198.873 134.045C198.139 133.018 197.113 132.212 195.793 131.625C194.473 131.002 193.006 130.69 191.393 130.69C189.339 130.69 187.781 131.148 186.718 132.065C185.654 132.982 185.123 134.118 185.123 135.475C185.123 136.758 185.471 137.767 186.168 138.5C186.901 139.233 187.836 139.802 188.973 140.205C190.109 140.608 191.301 140.993 192.548 141.36C193.831 141.69 195.041 142.13 196.178 142.68C197.314 143.193 198.231 143.927 198.928 144.88C199.661 145.797 200.028 147.08 200.028 148.73C200.028 150.82 199.239 152.488 197.663 153.735C196.123 154.945 194.051 155.55 191.448 155.55ZM207.122 155V129.7H208.827V155H207.122ZM207.947 123.375C207.471 123.375 207.067 123.192 206.737 122.825C206.407 122.458 206.242 122.037 206.242 121.56C206.242 121.047 206.407 120.625 206.737 120.295C207.067 119.965 207.471 119.8 207.947 119.8C208.461 119.8 208.882 119.965 209.212 120.295C209.579 120.625 209.762 121.047 209.762 121.56C209.762 122.037 209.579 122.458 209.212 122.825C208.882 123.192 208.461 123.375 207.947 123.375ZM224.963 155.55C223.607 155.55 222.323 155.367 221.113 155C219.94 154.597 218.877 154.065 217.923 153.405C216.97 152.708 216.127 151.92 215.393 151.04L216.548 149.83C217.648 151.26 218.913 152.323 220.343 153.02C221.773 153.68 223.332 154.01 225.018 154.01C227.108 154.01 228.777 153.57 230.023 152.69C231.27 151.773 231.893 150.527 231.893 148.95C231.893 147.557 231.527 146.457 230.793 145.65C230.097 144.843 229.18 144.22 228.043 143.78C226.907 143.34 225.697 142.937 224.413 142.57C223.167 142.203 221.975 141.782 220.838 141.305C219.702 140.792 218.767 140.095 218.033 139.215C217.337 138.298 216.988 137.07 216.988 135.53C216.988 134.283 217.318 133.183 217.978 132.23C218.638 131.277 219.573 130.525 220.783 129.975C221.993 129.425 223.423 129.15 225.073 129.15C226.87 129.15 228.52 129.48 230.023 130.14C231.527 130.763 232.7 131.68 233.543 132.89L232.388 134.045C231.655 133.018 230.628 132.212 229.308 131.625C227.988 131.002 226.522 130.69 224.908 130.69C222.855 130.69 221.297 131.148 220.233 132.065C219.17 132.982 218.638 134.118 218.638 135.475C218.638 136.758 218.987 137.767 219.683 138.5C220.417 139.233 221.352 139.802 222.488 140.205C223.625 140.608 224.817 140.993 226.063 141.36C227.347 141.69 228.557 142.13 229.693 142.68C230.83 143.193 231.747 143.927 232.443 144.88C233.177 145.797 233.543 147.08 233.543 148.73C233.543 150.82 232.755 152.488 231.178 153.735C229.638 154.945 227.567 155.55 224.963 155.55ZM244.653 155V118.92H246.358V155H244.653ZM237.943 131.185V129.7H253.013V131.185H237.943Z" fill="#777777"/>
<path d="M104.451 0.0419075C104.863 0.0405071 105.275 0.0388704 105.686 0.0370166C106.8 0.0327948 107.914 0.0322241 109.028 0.0325856C109.962 0.0326085 110.895 0.0309731 111.829 0.0293884C114.035 0.0257265 116.242 0.0251721 118.448 0.0264615C120.713 0.0277233 122.979 0.0233837 125.244 0.016302C127.197 0.0104221 129.15 0.00829085 131.103 0.00902951C132.266 0.00942078 133.428 0.00842214 134.591 0.00371425C135.687 -0.000578 136.784 -0.000131165 137.88 0.00370044C138.278 0.00434197 138.677 0.00341724 139.075 0.000654577C146.23 -0.0454521 152.256 2.34355 157.363 7.36328C161.869 11.8561 164.44 17.9656 164.487 24.3135C164.487 24.5788 164.486 24.8441 164.485 25.1094C164.485 25.2467 164.485 25.3841 164.485 25.5256C164.459 31.2038 162.671 36.4148 158.888 40.7116C158.753 40.872 158.617 41.0324 158.478 41.1977C155.662 44.466 152.15 46.4235 148.026 47.5718C148.224 47.6229 148.423 47.674 148.627 47.7267C150.663 48.2743 152.471 49.0307 154.314 50.0491C154.585 50.1969 154.585 50.1969 154.861 50.3476C156.043 51.0245 157.084 51.8421 158.125 52.717C158.257 52.8226 158.388 52.9283 158.524 53.0371C162.56 56.3783 165.125 61.8699 165.748 67.0091C166.135 75.0345 164.323 81.9995 158.893 88.1072C155.44 91.8996 150.6 94.5891 145.552 95.4833C144.994 95.5631 144.994 95.5631 144.596 95.784C142.944 96.0336 141.268 96.0006 139.602 95.9962C139.317 95.9961 139.031 95.9962 138.745 95.9963C137.976 95.9963 137.207 95.9952 136.438 95.9939C135.632 95.9927 134.825 95.9926 134.019 95.9923C132.495 95.9917 130.972 95.9902 129.448 95.9883C127.712 95.9861 125.976 95.9851 124.24 95.9841C120.671 95.9821 117.102 95.9788 113.534 95.9745C113.525 95.2225 113.519 94.4704 113.515 93.7183C113.512 93.508 113.509 93.2976 113.507 93.0809C113.476 86.624 116.698 80.6739 121.156 76.1561C121.645 75.6854 122.156 75.2518 122.681 74.8222C122.823 74.7037 122.823 74.7037 122.968 74.5829C124.532 73.2798 126.152 72.0954 127.841 70.9581C129.151 70.0735 130.395 69.1296 131.637 68.1525C131.842 67.9963 132.047 67.8404 132.252 67.685C138.588 62.8846 143.588 57.0366 144.92 48.9589C145.11 47.5103 145.069 46.0354 145.074 44.5772C145.077 44.2053 145.081 43.8334 145.085 43.4615C145.093 42.4926 145.099 41.5237 145.104 40.5547C145.11 39.562 145.119 38.5693 145.127 37.5766C145.144 35.6362 145.157 33.6957 145.167 31.7552C144.991 31.8584 144.991 31.8584 144.812 31.9636C144.658 32.0521 144.504 32.1405 144.345 32.2316C144.193 32.32 144.04 32.4085 143.883 32.4996C143.452 32.708 143.452 32.708 142.88 32.708C142.852 32.9871 142.852 32.9871 142.823 33.2719C142.749 33.9782 142.673 34.6842 142.597 35.3901C142.564 35.6927 142.532 35.9953 142.501 36.2981C141.923 41.934 140.154 47.1069 136.232 51.3213C135.957 51.624 135.693 51.937 135.439 52.2577C134.305 53.6597 132.721 54.7325 131.256 55.766C131.193 55.766 131.13 55.766 131.066 55.766C131.066 55.5158 131.066 55.5158 131.066 55.2605C131.067 51.1949 131.062 47.1294 131.05 43.0638C131.045 41.0977 131.041 39.1317 131.043 37.1656C131.044 35.4512 131.041 33.7369 131.034 32.0225C131.03 31.1154 131.028 30.2084 131.031 29.3012C131.034 28.4459 131.031 27.5908 131.025 26.7355C131.023 26.423 131.024 26.1105 131.026 25.7981C131.042 23.7004 130.806 21.9092 129.349 20.2729C128.262 19.2208 127.143 18.7839 125.647 18.6779C123.715 18.7205 121.871 19.4123 120.034 19.9591C119.179 20.2069 118.317 20.4214 117.452 20.6311C115.38 21.1393 113.327 21.7094 111.277 22.3038C109.182 22.9101 107.08 23.4745 104.967 24.0156C103.429 24.4112 101.9 24.8323 100.377 25.2787C99.526 25.5269 98.6793 25.7447 97.8126 25.9311C95.3234 26.5365 93.336 27.9952 91.9312 30.0945C91.1421 31.4034 90.5956 32.7378 90.2854 34.2325C90.2225 34.2325 90.1596 34.2325 90.0948 34.2325C90.0769 31.2258 90.0635 28.2191 90.0553 25.2124C90.0514 23.816 90.0461 22.4197 90.0373 21.0233C90.0297 19.8049 90.0248 18.5866 90.0231 17.3682C90.0221 16.7243 90.0198 16.0804 90.0142 15.4364C89.9802 11.0415 90.2503 7.32699 93.4676 3.98527C93.6123 3.84231 93.757 3.69934 93.9061 3.55204C94.037 3.41694 94.1679 3.28183 94.3028 3.14263C95.4515 2.03017 96.8031 1.2694 98.289 0.693614C98.4804 0.61889 98.4804 0.61889 98.6757 0.542657C100.554 -0.0725601 102.498 0.0387617 104.451 0.0419075Z" fill="#D6724F"/>
<path d="M128.588 19.369C129.85 20.3133 130.601 21.4922 131.065 22.9897C131.205 24.0706 131.211 25.1412 131.213 26.2297C131.216 26.5524 131.221 26.875 131.225 27.1976C131.236 28.0681 131.241 28.9385 131.243 29.809C131.245 30.3537 131.249 30.8983 131.252 31.4429C131.264 33.345 131.271 35.247 131.273 37.1492C131.275 38.9195 131.29 40.6894 131.311 42.4597C131.329 43.9829 131.337 45.5061 131.337 47.0294C131.338 47.9379 131.342 48.846 131.356 49.7544C131.369 50.6082 131.371 51.4612 131.363 52.315C131.362 52.6275 131.365 52.9401 131.373 53.2525C131.396 54.2101 131.379 55.0454 131.065 55.9569C130.312 56.6781 129.54 57.0521 128.588 57.4814C128.216 57.7025 127.846 57.928 127.481 58.1602C125.36 59.4573 123.231 60.7304 121.058 61.9405C114.968 65.3348 108.697 69.0135 104.387 74.6319C104.234 74.8169 104.082 75.0019 103.926 75.1924C98.9973 81.2391 97.7932 88.2239 97.7169 95.7843C95.3382 95.6434 93.8252 94.9297 92.1787 93.1715C90.2041 90.8387 90.0658 88.2983 90.0664 85.352C90.0657 85.1342 90.065 84.9165 90.0642 84.6921C90.0621 83.9664 90.0614 83.2408 90.0607 82.5151C90.0596 81.9931 90.0582 81.4712 90.0569 80.9493C90.0531 79.3868 90.0512 77.8244 90.0495 76.2619C90.0487 75.5246 90.0476 74.7873 90.0466 74.05C90.0434 71.5971 90.0406 69.1441 90.0393 66.6912C90.0389 66.056 90.0385 65.4209 90.0381 64.7858C90.0381 64.6279 90.038 64.4701 90.0379 64.3074C90.0363 61.7498 90.0315 59.1922 90.0253 56.6345C90.019 54.0041 90.0155 51.3737 90.0149 48.7433C90.0145 47.2682 90.0129 45.7931 90.008 44.3181C90.0038 43.0622 90.0023 41.8064 90.0042 40.5505C90.005 39.9106 90.0043 39.2709 90.001 38.631C89.9824 34.8056 90.2064 31.437 92.9588 28.4854C94.9538 26.621 97.3168 25.7867 99.9322 25.1811C100.408 25.0668 100.884 24.9519 101.359 24.8365C101.586 24.7815 101.813 24.7265 102.047 24.6698C102.822 24.4765 103.587 24.2592 104.351 24.0258C105.593 23.6471 106.844 23.3129 108.102 22.9897C109.392 22.6582 110.675 22.3147 111.949 21.9297C113.261 21.5341 114.582 21.1961 115.913 20.8696C116.974 20.6079 118.03 20.3304 119.084 20.036C119.223 19.9973 119.362 19.9587 119.506 19.919C120.228 19.7175 120.947 19.508 121.664 19.2879C124.009 18.5792 126.351 18.0168 128.588 19.369Z" fill="#F4E6D9"/>
<path d="M144.405 18.4152C144.908 18.6087 144.908 18.6087 145.421 18.8849C145.618 18.9887 145.814 19.0926 146.017 19.1996C146.333 19.3714 146.333 19.3714 146.656 19.5466C146.995 19.7264 147.333 19.9062 147.672 20.0856C147.912 20.2131 148.152 20.3409 148.393 20.469C149.351 20.9799 150.315 21.4794 151.281 21.9748C151.425 22.0485 151.569 22.1222 151.717 22.1982C152.288 22.4909 152.859 22.7833 153.43 23.0756C153.829 23.2798 154.227 23.4844 154.626 23.6891C154.746 23.7505 154.866 23.8119 154.99 23.8752C155.817 24.3009 155.817 24.3009 156.03 24.5131C156.137 25.0372 156.137 25.0372 156.03 25.6565C154.555 26.6957 152.903 27.4744 151.31 28.314C150.969 28.4947 150.629 28.6759 150.296 28.8705C149.605 29.2692 148.971 29.5329 148.199 29.7395C147.058 30.1071 146.188 30.5125 145.549 31.5639C144.824 33.9565 145.136 36.7529 145.212 39.2165C145.237 40.1796 145.242 41.1428 145.249 42.1062C145.265 43.992 145.304 45.8766 145.358 47.7617C145.503 47.731 145.647 47.7003 145.796 47.6686C147.043 47.4326 148.143 47.6337 149.348 47.9522C149.506 47.9939 149.663 48.0356 149.825 48.0785C151.434 48.5306 152.864 49.2316 154.315 50.0484C154.585 50.1962 154.585 50.1962 154.86 50.3469C156.044 51.0224 157.084 51.8412 158.126 52.7163C158.257 52.8219 158.389 52.9275 158.524 53.0364C162.561 56.3776 165.125 61.8692 165.748 67.0084C166.136 75.0337 164.324 81.9988 158.893 88.1065C155.44 91.8989 150.6 94.5884 145.552 95.4825C144.995 95.5624 144.995 95.5624 144.596 95.7833C142.944 96.0329 141.268 95.9999 139.603 95.9955C139.317 95.9954 139.031 95.9955 138.746 95.9956C137.977 95.9956 137.207 95.9945 136.438 95.9932C135.632 95.992 134.826 95.9919 134.02 95.9916C132.496 95.991 130.972 95.9895 129.448 95.9876C127.712 95.9854 125.976 95.9844 124.24 95.9834C120.671 95.9814 117.103 95.9781 113.534 95.9738C113.525 95.2218 113.52 94.4697 113.515 93.7176C113.512 93.5073 113.51 93.2969 113.507 93.0802C113.476 86.6233 116.698 80.6732 121.157 76.1554C121.645 75.6847 122.156 75.2511 122.681 74.8215C122.776 74.7425 122.871 74.6635 122.968 74.5822C124.533 73.2791 126.153 72.0947 127.841 70.9574C129.151 70.0728 130.396 69.1289 131.638 68.1518C131.842 67.9956 132.047 67.8397 132.253 67.6843C138.589 62.8839 143.588 57.0359 144.92 48.9582C145.11 47.5096 145.07 46.0347 145.074 44.5765C145.078 44.2046 145.081 43.8327 145.085 43.4608C145.094 42.4919 145.1 41.5229 145.105 40.554C145.11 39.5613 145.119 38.5686 145.128 37.5759C145.144 35.6355 145.157 33.695 145.168 31.7545C145.05 31.8233 144.933 31.8921 144.812 31.9629C144.658 32.0513 144.504 32.1398 144.346 32.2309C144.117 32.3635 144.117 32.3635 143.883 32.4989C143.452 32.7073 143.452 32.7073 142.881 32.7073C142.818 33.399 142.755 34.0908 142.69 34.8035C142.627 34.8035 142.564 34.8035 142.5 34.8035C142.482 32.7793 142.468 30.7551 142.46 28.7308C142.456 27.7909 142.451 26.851 142.442 25.9111C142.434 25.0042 142.429 24.0973 142.427 23.1903C142.426 22.8442 142.423 22.498 142.419 22.1519C142.414 21.6673 142.413 21.183 142.413 20.6984C142.41 20.555 142.408 20.4116 142.405 20.2639C142.41 19.6036 142.451 19.2421 142.851 18.706C143.411 18.3098 143.732 18.3269 144.405 18.4152Z" fill="#E89875"/>
<path d="M105.721 73.1077C105.565 73.2709 105.565 73.2709 105.406 73.4375C99.4975 79.7903 97.8022 87.3756 97.7172 95.7846C95.3386 95.6436 93.8255 94.93 92.179 93.1718C90.9556 91.7263 90.1383 90.0772 90.2072 88.1464C90.615 85.245 91.9897 82.3502 93.906 80.1585C94.0396 80.002 94.1733 79.8455 94.3109 79.6843C95.9829 77.7715 102.692 71.5931 105.721 73.1077Z" fill="#DAAC8D"/>
<path d="M144.404 18.4152C144.906 18.6087 144.906 18.6087 145.42 18.8849C145.616 18.9887 145.813 19.0926 146.015 19.1996C146.332 19.3714 146.332 19.3714 146.655 19.5466C146.993 19.7264 147.332 19.9062 147.67 20.0856C147.911 20.2131 148.151 20.3409 148.391 20.469C149.349 20.9799 150.313 21.4794 151.28 21.9748C151.495 22.0854 151.495 22.0854 151.715 22.1982C152.286 22.4909 152.858 22.7833 153.429 23.0756C153.827 23.2798 154.226 23.4844 154.624 23.6891C154.744 23.7505 154.865 23.8119 154.989 23.8752C155.816 24.3009 155.816 24.3009 156.028 24.5131C156.135 25.0372 156.135 25.0372 156.028 25.6565C154.554 26.6957 152.902 27.4744 151.308 28.314C150.968 28.4946 150.628 28.6756 150.294 28.8691C149.606 29.2641 148.96 29.5394 148.197 29.7629C147.086 30.1445 146.198 30.5503 145.547 31.5639C144.938 33.8295 145.132 36.2753 145.21 38.5982C145.236 39.4808 145.241 40.3635 145.248 41.2465C145.264 42.9743 145.303 44.7007 145.357 46.4277C145.294 46.4277 145.231 46.4277 145.166 46.4277C145.166 41.5856 145.166 36.7434 145.166 31.7545C144.6 32.0689 144.034 32.3833 143.451 32.7073C143.262 32.7073 143.074 32.7073 142.879 32.7073C142.816 33.399 142.754 34.0908 142.689 34.8035C142.626 34.8035 142.563 34.8035 142.498 34.8035C142.481 32.7793 142.467 30.7551 142.459 28.7308C142.455 27.7909 142.449 26.851 142.441 25.9111C142.432 25.0042 142.428 24.0973 142.426 23.1903C142.424 22.8442 142.422 22.498 142.418 22.1519C142.412 21.6673 142.411 21.183 142.412 20.6984C142.409 20.555 142.406 20.4116 142.403 20.2639C142.409 19.6036 142.45 19.2421 142.85 18.706C143.409 18.3098 143.73 18.3269 144.404 18.4152Z" fill="#EEB797"/>
<path d="M118.488 35.757C118.941 36.0667 118.941 36.0667 119.25 36.5193C119.346 37.1029 119.346 37.1029 119.25 37.6626C118.654 38.23 117.988 38.4376 117.214 38.6869C117.024 38.7481 117.024 38.7481 116.83 38.8106C116.431 38.9383 116.03 39.0631 115.63 39.1871C115.396 39.2596 115.163 39.3321 114.922 39.4067C113.029 39.9818 111.116 40.4834 109.204 40.9896C107.626 41.4073 106.051 41.8329 104.482 42.2838C104.322 42.3296 104.162 42.3754 103.997 42.4226C103.29 42.6262 102.585 42.8333 101.881 43.0475C101.647 43.1178 101.412 43.188 101.171 43.2604C100.975 43.3208 100.779 43.3813 100.577 43.4435C99.8132 43.6121 99.0074 43.7553 98.3004 43.3676C97.9722 42.7691 98.0043 42.3318 98.0979 41.6644C98.7418 40.8367 99.6477 40.7232 100.622 40.5032C101.483 40.2954 102.325 40.0415 103.172 39.7826C105.308 39.1347 107.451 38.5219 109.614 37.9678C109.979 37.8741 110.345 37.7803 110.711 37.6865C110.893 37.6399 111.075 37.5933 111.263 37.5453C112.827 37.1391 114.371 36.672 115.909 36.1732C117.568 35.6476 117.568 35.6476 118.488 35.757Z" fill="#CBB19B"/>
<path d="M114.105 45.6658C114.637 46.0437 114.834 46.2622 114.963 46.9045C114.835 47.5432 114.603 47.7267 114.105 48.1431C113.519 48.3925 113.519 48.3925 112.831 48.6076C112.705 48.6474 112.579 48.6873 112.449 48.7283C112.049 48.8535 111.648 48.975 111.247 49.0959C111.064 49.1523 111.064 49.1523 110.877 49.2097C108.885 49.8215 106.873 50.3546 104.858 50.8869C103.692 51.1986 102.547 51.5379 101.409 51.9424C100.442 52.2751 99.6869 52.5115 98.6697 52.3355C98.1566 51.9186 98.1096 51.6525 98.0146 51.0015C98.1188 50.2873 98.3141 50.1248 98.8603 49.6676C99.3217 49.4744 99.3217 49.4744 99.8473 49.3334C100.049 49.2778 100.25 49.2222 100.457 49.1649C100.677 49.1068 100.897 49.0486 101.123 48.9887C101.477 48.8917 101.83 48.7946 102.184 48.6971C102.438 48.627 102.693 48.5572 102.947 48.4877C104.003 48.199 105.055 47.8974 106.106 47.5915C106.268 47.5445 106.429 47.4975 106.596 47.449C107.082 47.3073 107.569 47.1655 108.055 47.0236C108.667 46.845 109.28 46.6669 109.892 46.4891C110.026 46.4501 110.159 46.411 110.297 46.3708C113.168 45.538 113.168 45.538 114.105 45.6658Z" fill="#CBB09A"/>
<path d="M111.818 55.0035C112.007 55.1292 112.195 55.255 112.39 55.3846C112.525 56.436 112.525 56.436 112.39 56.9091C111.584 57.7968 110.479 58.0198 109.365 58.3383C109.167 58.3965 108.97 58.4547 108.767 58.5147C107.505 58.8842 106.238 59.2294 104.965 59.5554C104.332 59.7235 103.711 59.9181 103.087 60.1166C102.793 60.2097 102.793 60.2097 102.493 60.3046C102.103 60.4285 101.714 60.5545 101.326 60.6827C99.6369 61.2184 99.6369 61.2184 98.6694 60.9109C98.3121 60.6846 98.3121 60.6846 98.0977 60.3392C98.0143 59.7794 98.0143 59.7794 98.0977 59.1958C98.6095 58.5736 99.0283 58.32 99.8023 58.1209C99.9895 58.071 100.177 58.0211 100.369 57.9696C100.571 57.9184 100.772 57.8671 100.98 57.8142C101.41 57.6997 101.839 57.5846 102.268 57.4689C102.491 57.4092 102.713 57.3495 102.942 57.288C104.062 56.9786 105.171 56.6351 106.28 56.2898C106.482 56.2271 106.683 56.1644 106.891 56.0998C107.084 56.0396 107.277 55.9795 107.476 55.9176C107.754 55.8314 107.754 55.8314 108.037 55.7435C108.397 55.6314 108.758 55.5188 109.119 55.4057C109.287 55.3538 109.455 55.3018 109.628 55.2484C109.776 55.2024 109.923 55.1565 110.075 55.1092C110.672 54.955 111.207 54.9411 111.818 55.0035Z" fill="#CBB19A"/>
<path d="M150.884 46.8097C150.444 47.0612 150.004 47.3128 149.55 47.5719C149.613 47.6977 149.676 47.8235 149.741 47.9531C148.913 47.9849 148.367 47.9778 147.645 47.5719C148.112 47.4074 148.581 47.245 149.05 47.0836C149.25 47.0131 149.25 47.0131 149.453 46.9411C150.46 46.5975 150.46 46.5975 150.884 46.8097Z" fill="#F8E4DA"/>
<path d="M90.2852 30.9937C90.348 31.2452 90.4109 31.4967 90.4757 31.7559C90.6015 31.7559 90.7273 31.7559 90.8568 31.7559C90.7311 32.259 90.6053 32.7621 90.4757 33.2804C90.4128 33.2804 90.3499 33.2804 90.2852 33.2804C90.2852 32.5258 90.2852 31.7711 90.2852 30.9937Z" fill="#D66341"/>
</svg>
